<?xml version="1.0" encoding="UTF-8" standalone="no"?>
<!-- Created with Inkscape (http://www.inkscape.org/) -->

<svg
   xmlns:dc="http://purl.org/dc/elements/1.1/"
   xmlns:cc="http://creativecommons.org/ns#"
   xmlns:rdf="http://www.w3.org/1999/02/22-rdf-syntax-ns#"
   xmlns:svg="http://www.w3.org/2000/svg"
   xmlns="http://www.w3.org/2000/svg"
   xmlns:sodipodi="http://sodipodi.sourceforge.net/DTD/sodipodi-0.dtd"
   xmlns:inkscape="http://www.inkscape.org/namespaces/inkscape"
   width="235.28714"
   height="771.6073"
   viewBox="0 0 235.28714 771.60733"
   version="1.1"
   id="svg1332"
   inkscape:version="0.92.5 (2060ec1f9f, 2020-04-08)"
   sodipodi:docname="Briquet.svg">
  <defs
     id="defs1326" />
  <sodipodi:namedview
     id="base"
     pagecolor="#ffffff"
     bordercolor="#666666"
     borderopacity="1.0"
     inkscape:pageopacity="0.0"
     inkscape:pageshadow="2"
     inkscape:zoom="0.70710678"
     inkscape:cx="144.52495"
     inkscape:cy="399.77694"
     inkscape:document-units="px"
     inkscape:current-layer="layer2"
     showgrid="false"
     units="px"
     scale-x="1"
     borderlayer="true"
     inkscape:showpageshadow="false"
     fit-margin-top="0"
     fit-margin-left="0"
     fit-margin-right="0"
     fit-margin-bottom="0"
     showborder="false"
     inkscape:object-paths="true"
     inkscape:snap-intersection-paths="true"
     inkscape:snap-smooth-nodes="true" />
  <metadata
     id="metadata1329">
    <rdf:RDF>
      <cc:Work
         rdf:about="">
        <dc:format>image/svg+xml</dc:format>
        <dc:type
           rdf:resource="http://purl.org/dc/dcmitype/StillImage" />
        <dc:title></dc:title>
      </cc:Work>
    </rdf:RDF>
  </metadata>
  <g
     inkscape:groupmode="layer"
     id="layer2"
     inkscape:label="Couleurs"
     sodipodi:insensitive="true">
    <path
       inkscape:connector-curvature="0"
       style="color:#000000;clip-rule:nonzero;display:inline;overflow:visible;visibility:visible;opacity:1;isolation:auto;mix-blend-mode:normal;color-interpolation:sRGB;color-interpolation-filters:linearRGB;solid-color:#000000;solid-opacity:1;fill:#999999;fill-opacity:1;fill-rule:nonzero;stroke:none;stroke-width:0.99999994;stroke-linecap:butt;stroke-linejoin:round;stroke-miterlimit:4;stroke-dasharray:none;stroke-dashoffset:0;stroke-opacity:1;paint-order:normal;color-rendering:auto;image-rendering:auto;shape-rendering:auto;text-rendering:auto;enable-background:accumulate"
       d="M 119.69731,0.4999257 A 46.624997,46.624997 0 0 0 81.921927,19.871026 l 9.953121,-1.47265 c 6.92023,-1.02384 13.044572,-1.78167 18.437512,-1.82616 13.78189,-0.11376 22.78102,4.42972 28.03513,21.093739 l 12.2383,38.820321 h 5.25782 A 46.624997,46.624997 0 0 0 166.32232,47.124936 46.624997,46.624997 0 0 0 119.69731,0.4999257 Z"
       id="path1224" />
    <path
       inkscape:connector-curvature="0"
       style="color:#000000;clip-rule:nonzero;display:inline;overflow:visible;visibility:visible;opacity:1;isolation:auto;mix-blend-mode:normal;color-interpolation:sRGB;color-interpolation-filters:linearRGB;solid-color:#000000;solid-opacity:1;fill:#808080;fill-opacity:1;fill-rule:nonzero;stroke:none;stroke-width:0.99999994;stroke-linecap:butt;stroke-linejoin:round;stroke-miterlimit:4;stroke-dasharray:none;stroke-dashoffset:0;stroke-opacity:1;paint-order:normal;color-rendering:auto;image-rendering:auto;shape-rendering:auto;text-rendering:auto;enable-background:accumulate"
       d="m 119.69726,10.25001 a 36.875001,36.875001 0 0 0 -22.021486,7.3457 c 4.589556,-0.5907 8.807696,-0.99186 12.636736,-1.02342 13.78189,-0.11376 22.78102,4.42972 28.03513,21.09373 l 10.20314,32.35937 a 36.875001,36.875001 0 0 0 8.02148,-22.90038 36.875001,36.875001 0 0 0 -36.875,-36.875 z"
       id="path1226" />
    <path
       sodipodi:nodetypes="csssscc"
       inkscape:connector-curvature="0"
       style="color:#000000;clip-rule:nonzero;display:inline;overflow:visible;visibility:visible;opacity:1;isolation:auto;mix-blend-mode:normal;color-interpolation:sRGB;color-interpolation-filters:linearRGB;solid-color:#000000;solid-opacity:1;fill:#ff0000;fill-opacity:1;fill-rule:nonzero;stroke:none;stroke-width:0.99999994;stroke-linecap:butt;stroke-linejoin:round;stroke-miterlimit:4;stroke-dasharray:none;stroke-dashoffset:0;stroke-opacity:1;paint-order:normal;color-rendering:auto;image-rendering:auto;shape-rendering:auto;text-rendering:auto;enable-background:accumulate"
       d="m 157.83392,99.466834 h 73.17381 c 2.09385,0 3.7793,-1.68545 3.7793,-3.77931 v -15.42188 c 0,-2.09385 -1.68545,-3.7793 -3.7793,-3.7793 h -80.41992 z"
       id="path1232" />
    <path
       sodipodi:nodetypes="ccccc"
       inkscape:connector-curvature="0"
       id="path1234"
       d="m 157.83362,99.46693 h 58.38727 v 28.06897 l -49.53728,-7.2e-4 z"
       style="color:#000000;clip-rule:nonzero;display:inline;overflow:visible;visibility:visible;opacity:1;isolation:auto;mix-blend-mode:normal;color-interpolation:sRGB;color-interpolation-filters:linearRGB;solid-color:#000000;solid-opacity:1;fill:#d40000;fill-opacity:1;fill-rule:nonzero;stroke:none;stroke-width:0.99999994;stroke-linecap:butt;stroke-linejoin:round;stroke-miterlimit:4;stroke-dasharray:none;stroke-dashoffset:0;stroke-opacity:1;paint-order:normal;color-rendering:auto;image-rendering:auto;shape-rendering:auto;text-rendering:auto;enable-background:accumulate" />
    <path
       sodipodi:nodetypes="cccccscssssccssssccc"
       inkscape:connector-curvature="0"
       style="fill:#cccccc;fill-rule:evenodd;stroke:none;stroke-width:0.99999994;stroke-linecap:butt;stroke-linejoin:miter;stroke-miterlimit:4;stroke-dasharray:none;stroke-opacity:1"
       d="M 166.6836,127.53518 138.34765,37.666013 c -5.25415,-16.66397 -14.25328,-21.20738 -28.03518,-21.09373 -5.39289,0.0446 -11.517239,0.80232 -18.437479,1.82615 l -74.67775,11.04885 c -12.3901997,1.83311 -16.69723972,5.43859 -16.69723972,19.5332 v 13.28319 H 4.7324313 c 2.09382,0 3.77926,1.68544 3.77926,3.7793 v 1.98829 c 0,2.09386 -1.68544,3.77931 -3.77926,3.77931 H 0.50000128 v 12.45309 H 4.7324313 c 2.09382,0 3.77926,1.68544 3.77926,3.7793 v 1.98829 c 0,2.09386 -1.68544,3.779303 -3.77926,3.779303 H 0.50000128 v 33.724624 z"
       id="path1210" />
    <path
       style="color:#000000;clip-rule:nonzero;display:inline;overflow:visible;visibility:visible;opacity:1;isolation:auto;mix-blend-mode:normal;color-interpolation:sRGB;color-interpolation-filters:linearRGB;solid-color:#000000;solid-opacity:1;fill:#e6e6e6;fill-opacity:1;fill-rule:nonzero;stroke:none;stroke-width:0.99999994;stroke-linecap:butt;stroke-linejoin:round;stroke-miterlimit:4;stroke-dasharray:none;stroke-dashoffset:0;stroke-opacity:1;paint-order:normal;color-rendering:auto;image-rendering:auto;shape-rendering:auto;text-rendering:auto;enable-background:accumulate"
       d="m 104.37295,76.485966 c -2.09386,0 -3.7793,1.68545 -3.7793,3.77931 v 13.78907 a 15.143258,15.143258 0 0 0 15.1426,15.142574 15.143258,15.143258 0 0 0 15.14257,-15.142574 v -13.78907 c 0,-2.09386 -1.68544,-3.77931 -3.7793,-3.77931 z"
       id="path1230"
       inkscape:connector-curvature="0" />
    <path
       sodipodi:nodetypes="ccccc"
       inkscape:connector-curvature="0"
       id="path1212"
       d="M 0.50087192,771.10731 H 234.7866 V 127.53589 H 0.50087192 Z"
       style="fill:#ffeeaa;fill-rule:evenodd;stroke:none;stroke-width:0.99999994;stroke-linecap:butt;stroke-linejoin:miter;stroke-miterlimit:4;stroke-dasharray:none;stroke-opacity:1" />
  </g>
  <g
     inkscape:label="Contour"
     inkscape:groupmode="layer"
     id="layer1"
     transform="translate(-279.20683,-175.45616)"
     sodipodi:insensitive="true">
    <g
       id="g1243"
       transform="matrix(3.7795276,0,0,3.7795276,-965.72091,-1034.157)">
      <path
         sodipodi:nodetypes="ccccc"
         inkscape:connector-curvature="0"
         id="path1198"
         d="m 329.51965,524.06562 h 61.98808 V 353.78735 h -61.98808 z"
         style="fill:none;fill-rule:evenodd;stroke:#000000;stroke-width:0.26458332;stroke-linecap:butt;stroke-linejoin:miter;stroke-miterlimit:4;stroke-dasharray:none;stroke-opacity:1" />
      <path
         inkscape:connector-curvature="0"
         style="fill:none;fill-rule:evenodd;stroke:#000000;stroke-width:0.26458332;stroke-linecap:butt;stroke-linejoin:miter;stroke-miterlimit:4;stroke-dasharray:none;stroke-opacity:1"
         d="m 373.48883,353.78716 -7.49721,-23.77788 c -1.39016,-4.40901 -3.77118,-5.61112 -7.41764,-5.58105 -1.42687,0.0118 -3.04728,0.21228 -4.87826,0.48317 l -19.75848,2.92334 c -3.27824,0.48501 -4.41782,1.43897 -4.41782,5.16816 v 3.51451 h 1.11983 c 0.554,0 0.99994,0.44594 0.99994,0.99994 v 0.52607 c 0,0.554 -0.44594,0.99994 -0.99994,0.99994 h -1.11983 v 3.29489 h 1.11983 c 0.554,0 0.99994,0.44593 0.99994,0.99994 v 0.52606 c 0,0.554 -0.44594,0.99994 -0.99994,0.99994 h -1.11983 v 8.92297"
         id="path1200" />
      <path
         inkscape:connector-curvature="0"
         style="color:#000000;clip-rule:nonzero;display:inline;overflow:visible;visibility:visible;opacity:1;isolation:auto;mix-blend-mode:normal;color-interpolation:sRGB;color-interpolation-filters:linearRGB;solid-color:#000000;solid-opacity:1;fill:none;fill-opacity:1;fill-rule:nonzero;stroke:#000000;stroke-width:0.26458332;stroke-linecap:butt;stroke-linejoin:round;stroke-miterlimit:4;stroke-dasharray:none;stroke-dashoffset:0;stroke-opacity:1;paint-order:normal;color-rendering:auto;image-rendering:auto;shape-rendering:auto;text-rendering:auto;enable-background:accumulate"
         d="m 371.14737,346.36074 h 19.36058 c 0.554,0 0.99994,-0.44594 0.99994,-0.99994 v -4.08037 c 0,-0.554 -0.44594,-0.99994 -0.99994,-0.99994 h -21.27777"
         id="path1202" />
      <path
         style="color:#000000;clip-rule:nonzero;display:inline;overflow:visible;visibility:visible;opacity:1;isolation:auto;mix-blend-mode:normal;color-interpolation:sRGB;color-interpolation-filters:linearRGB;solid-color:#000000;solid-opacity:1;fill:none;fill-opacity:1;fill-rule:nonzero;stroke:#000000;stroke-width:0.26458332;stroke-linecap:butt;stroke-linejoin:round;stroke-miterlimit:4;stroke-dasharray:none;stroke-dashoffset:0;stroke-opacity:1;paint-order:normal;color-rendering:auto;image-rendering:auto;shape-rendering:auto;text-rendering:auto;enable-background:accumulate"
         d="m 357.00247,340.28039 c -0.554,0 -0.99994,0.44594 -0.99994,0.99994 v 3.64835 a 4.0066536,4.0066536 0 0 0 4.00648,4.00648 4.0066536,4.0066536 0 0 0 4.00647,-4.00648 v -3.64835 c 0,-0.554 -0.44594,-0.99994 -0.99994,-0.99994 z"
         id="path1204"
         inkscape:connector-curvature="0" />
      <path
         style="fill:none;fill-rule:evenodd;stroke:#000000;stroke-width:0.26458332;stroke-linecap:butt;stroke-linejoin:miter;stroke-miterlimit:4;stroke-dasharray:none;stroke-opacity:1"
         d="m 386.59557,346.36077 v 7.42658"
         id="path1208"
         inkscape:connector-curvature="0"
         sodipodi:nodetypes="cc" />
      <path
         inkscape:connector-curvature="0"
         style="color:#000000;clip-rule:nonzero;display:inline;overflow:visible;visibility:visible;opacity:1;isolation:auto;mix-blend-mode:normal;color-interpolation:sRGB;color-interpolation-filters:linearRGB;solid-color:#000000;solid-opacity:1;fill:none;fill-opacity:1;fill-rule:nonzero;stroke:#000000;stroke-width:0.26458332;stroke-linecap:butt;stroke-linejoin:round;stroke-miterlimit:4;stroke-dasharray:none;stroke-dashoffset:0;stroke-opacity:1;paint-order:normal;color-rendering:auto;image-rendering:auto;shape-rendering:auto;text-rendering:auto;enable-background:accumulate"
         d="m 369.22966,340.28049 h 1.39113 c 1.78813,-2.19469 2.76703,-4.93761 2.77244,-7.76852 0,-6.81309 -5.5231,-12.3362 -12.3362,-12.3362 -3.96123,0.005 -7.67926,1.91125 -9.99474,5.12527"
         id="path1214" />
      <path
         inkscape:connector-curvature="0"
         style="color:#000000;clip-rule:nonzero;display:inline;overflow:visible;visibility:visible;opacity:1;isolation:auto;mix-blend-mode:normal;color-interpolation:sRGB;color-interpolation-filters:linearRGB;solid-color:#000000;solid-opacity:1;fill:none;fill-opacity:1;fill-rule:nonzero;stroke:#000000;stroke-width:0.26458332;stroke-linecap:butt;stroke-linejoin:round;stroke-miterlimit:4;stroke-dasharray:none;stroke-dashoffset:0;stroke-opacity:1;paint-order:normal;color-rendering:auto;image-rendering:auto;shape-rendering:auto;text-rendering:auto;enable-background:accumulate"
         d="m 368.69119,338.57103 c 1.37072,-1.72243 2.11869,-3.85778 2.12235,-6.05906 0,-5.38837 -4.36814,-9.75651 -9.75651,-9.75651 -2.10076,0.004 -4.14423,0.68532 -5.82651,1.94355"
         id="path1216" />
    </g>
  </g>
</svg>
